<svg width="145" height="132" viewBox="0 0 145 132" fill="none" xmlns="http://www.w3.org/2000/svg">
<path fill-rule="evenodd" clip-rule="evenodd" d="M32.8046 123.467C46.1687 123.467 57.0024 112.633 57.0024 99.2692C57.0024 85.9052 46.1687 75.0715 32.8046 75.0715C19.4406 75.0715 8.60684 85.9052 8.60684 99.2692C8.60684 112.633 19.4406 123.467 32.8046 123.467ZM32.8046 131.315C50.503 131.315 64.8504 116.968 64.8504 99.2692C64.8504 81.5709 50.503 67.2235 32.8046 67.2235C15.1063 67.2235 0.758911 81.5709 0.758911 99.2692C0.758911 116.968 15.1063 131.315 32.8046 131.315Z" fill="#EA5400"/>
<path d="M7.98619 119.543C13.8628 112.358 22.7982 107.771 32.8048 107.771C42.8114 107.771 51.7467 112.358 57.6234 119.543C55.9558 121.582 54.0418 123.412 51.927 124.987C47.5 119.287 40.5807 115.619 32.8048 115.619C25.0288 115.619 18.1095 119.287 13.6826 124.987C11.5678 123.412 9.65382 121.582 7.98619 119.543Z" fill="#EA5400"/>
<path fill-rule="evenodd" clip-rule="evenodd" d="M32.8047 99.9586C36.075 99.9586 38.726 97.3075 38.726 94.0373C38.726 90.767 36.075 88.116 32.8047 88.116C29.5345 88.116 26.8834 90.767 26.8834 94.0373C26.8834 97.3075 29.5345 99.9586 32.8047 99.9586ZM32.8047 105.155C38.945 105.155 43.9226 100.178 43.9226 94.0373C43.9226 87.897 38.945 82.9194 32.8047 82.9194C26.6645 82.9194 21.6868 87.897 21.6868 94.0373C21.6868 100.178 26.6645 105.155 32.8047 105.155Z" fill="#EA5400"/>
<path fill-rule="evenodd" clip-rule="evenodd" d="M102.586 85.5851C94.9328 85.5851 88.7285 91.7894 88.7285 99.4427C88.7285 107.096 94.9328 113.3 102.586 113.3C110.239 113.3 116.444 107.096 116.444 99.4427C116.444 91.7894 110.239 85.5851 102.586 85.5851ZM102.586 75.1919C89.1928 75.1919 78.3352 86.0494 78.3352 99.4427C78.3352 112.836 89.1928 123.694 102.586 123.694C115.979 123.694 126.837 112.836 126.837 99.4427C126.837 86.0494 115.979 75.1919 102.586 75.1919Z" fill="#EA5400"/>
<path fill-rule="evenodd" clip-rule="evenodd" d="M61.018 94.2461L88.7285 94.2461V104.639H61.018V94.2461Z" fill="#EA5400"/>
<path fill-rule="evenodd" clip-rule="evenodd" d="M116.475 94.5661H144.186V104.959L116.475 104.959V94.5661Z" fill="#EA5400"/>
<path fill-rule="evenodd" clip-rule="evenodd" d="M102.586 10.8836C94.9328 10.8836 88.7285 17.0878 88.7285 24.7412C88.7285 32.3945 94.9328 38.5988 102.586 38.5988C110.239 38.5988 116.444 32.3945 116.444 24.7412C116.444 17.0878 110.239 10.8836 102.586 10.8836ZM102.586 0.490353C89.1928 0.490351 78.3352 11.3478 78.3352 24.7412C78.3352 38.1345 89.1928 48.992 102.586 48.992C115.979 48.992 126.837 38.1345 126.837 24.7412C126.837 11.3478 115.979 0.490354 102.586 0.490353Z" fill="#EA5400"/>
<path fill-rule="evenodd" clip-rule="evenodd" d="M61.018 19.5446L88.7285 19.5446V29.9378L61.018 29.9378V19.5446Z" fill="#EA5400"/>
<path fill-rule="evenodd" clip-rule="evenodd" d="M116.475 19.8645L144.186 19.8645V30.2577L116.475 30.2577V19.8645Z" fill="#EA5400"/>
<path fill-rule="evenodd" clip-rule="evenodd" d="M96.3772 47.3033V44.3153H109.325V47.3033H96.3772ZM96.3772 59.2555V53.2794H109.325V59.2555H96.3772ZM96.3772 71.2077V65.2316H109.325V71.2077H96.3772ZM96.3772 80.1718V77.1838H109.325V80.1718H96.3772Z" fill="#EA5400"/>
</svg>
