<svg width="504" height="137" viewBox="0 0 504 137" fill="none" xmlns="http://www.w3.org/2000/svg">
<path d="M474.603 113.873L474.597 113.867C472.16 111.652 470.959 108.755 470.959 105.324C470.959 101.477 472.406 98.3423 475.342 96.1248C478.283 93.8916 482.437 92.8984 487.557 92.8984C490.765 92.8984 493.95 93.19 497.109 93.7729C498.534 94.0321 499.713 94.7636 500.568 95.9271C501.455 97.0214 501.892 98.3156 501.892 99.7375C501.892 101.127 501.312 102.317 500.229 103.184L500.203 103.205L500.175 103.225C499.056 104.046 497.753 104.257 496.423 103.91C493.922 103.285 491.275 102.97 488.477 102.97C486.451 102.97 485.188 103.26 484.483 103.652C484.155 103.834 483.983 104.019 483.887 104.179C483.792 104.338 483.718 104.559 483.718 104.9C483.718 105.603 483.946 106.118 484.415 106.559C484.895 107.011 485.911 107.52 487.747 107.925C493.199 109.017 497.277 110.541 499.604 112.697C502.054 114.923 503.165 118.097 503.165 121.943C503.165 125.804 501.684 128.941 498.697 131.154C495.762 133.327 491.666 134.298 486.638 134.298C483.351 134.298 480.001 133.905 476.592 133.126C475.19 132.807 474.021 132.057 473.136 130.92L473.123 130.903L473.111 130.886C472.244 129.71 471.808 128.361 471.808 126.893C471.808 125.495 472.402 124.294 473.584 123.506L473.603 123.493L473.623 123.48C474.756 122.773 476.021 122.583 477.309 122.941C480.255 123.757 483.009 124.155 485.577 124.155C487.616 124.155 488.88 123.844 489.584 123.426C490.157 123.086 490.407 122.663 490.407 121.943C490.407 121.135 490.151 120.643 489.711 120.277L489.694 120.263L489.677 120.248C489.181 119.81 488.026 119.25 485.909 118.696C480.887 117.593 477.036 116.036 474.61 113.879L474.603 113.873Z" fill="#EA5400"/>
<path d="M415.664 131.901L415.647 131.883C414.617 130.789 414.079 129.454 414.079 127.954V99.2425C414.079 97.7423 414.617 96.4075 415.647 95.3131L415.664 95.2954L415.681 95.2782C416.768 94.1907 418.114 93.6056 419.645 93.6056H420.635C422.13 93.6056 423.453 94.1406 424.512 95.1904C424.938 95.595 425.29 96.0411 425.565 96.5243C428.127 94.1692 431.037 92.8984 434.284 92.8984C436.584 92.8984 438.608 93.3295 440.22 94.3407C441.388 95.0526 442.387 96.0992 443.246 97.4077C446.13 94.4814 449.44 92.8984 453.165 92.8984C457.338 92.8984 460.708 94.0326 462.827 96.6746C464.937 99.2471 465.803 103.383 465.803 108.648V127.954C465.803 129.477 465.224 130.816 464.148 131.901C463.097 133.008 461.763 133.591 460.237 133.591H459.035C457.503 133.591 456.158 133.005 455.07 131.918C453.983 130.831 453.398 129.485 453.398 127.954V110.062C453.398 108.384 453.317 107.042 453.167 106.016C453.012 104.954 452.803 104.373 452.642 104.108C452.399 103.71 451.814 103.253 450.195 103.253C449.5 103.253 448.645 103.566 447.607 104.524C446.553 105.497 446.285 106.232 446.285 106.739V127.954C446.285 129.485 445.7 130.831 444.612 131.918C443.525 133.005 442.179 133.591 440.648 133.591H439.446C437.915 133.591 436.569 133.005 435.482 131.918L435.464 131.901L435.448 131.883C434.418 130.789 433.88 129.454 433.88 127.954V110.062C433.88 108.412 433.793 107.094 433.634 106.087C433.47 105.048 433.25 104.482 433.08 104.221L433.058 104.188L433.038 104.153C432.782 103.715 432.198 103.253 430.606 103.253C429.911 103.253 429.056 103.566 428.018 104.524C426.965 105.497 426.696 106.232 426.696 106.739V127.954C426.696 129.485 426.111 130.831 425.024 131.918C423.936 133.005 422.591 133.591 421.06 133.591H419.645C418.114 133.591 416.768 133.005 415.681 131.918L415.664 131.901Z" fill="#EA5400"/>
<path d="M394.06 98.4198C393.887 97.2267 393.334 96.1664 392.446 95.2782C391.358 94.1907 390.013 93.6056 388.482 93.6056H387.067C385.536 93.6056 384.19 94.1907 383.103 95.2782C382.015 96.3657 381.43 97.7112 381.43 99.2425V127.954C381.43 129.485 382.015 130.831 383.103 131.918C384.19 133.005 385.536 133.591 387.067 133.591H388.835C390.366 133.591 391.712 133.005 392.799 131.918C393.887 130.831 394.472 129.485 394.472 127.954V115.366C394.472 111.737 395.434 109.176 397.14 107.44C398.863 105.689 401.567 104.55 405.51 104.238L405.522 104.237L405.535 104.236C406.899 104.106 408.095 103.54 409.064 102.57C410.069 101.565 410.596 100.31 410.596 98.8889C410.596 97.4767 410.076 96.2275 409.082 95.2257C408.054 94.1382 406.729 93.6115 405.231 93.7543L405.221 93.7552L405.212 93.7562C402.374 94.0602 399.742 94.8737 397.333 96.2043C396.135 96.8428 395.042 97.5811 394.06 98.4198Z" fill="#EA5400"/>
<path fill-rule="evenodd" clip-rule="evenodd" d="M341.461 128.844L341.453 128.835C337.984 125.103 336.356 119.948 336.356 113.598C336.356 107.249 337.984 102.112 341.461 98.4236C344.99 94.6835 349.863 92.8984 355.853 92.8984C361.839 92.8984 366.691 94.6802 370.176 98.4237C373.699 102.11 375.351 107.248 375.351 113.598C375.351 119.954 373.696 125.112 370.175 128.843C366.689 132.541 361.836 134.298 355.853 134.298C349.869 134.298 345 132.541 341.469 128.852L341.461 128.844ZM360.755 105.247L360.767 105.265L360.78 105.283C361.89 106.798 362.592 109.464 362.592 113.598C362.592 117.727 361.892 120.429 360.77 121.999L360.765 122.005C359.755 123.434 358.218 124.226 355.853 124.226C353.5 124.226 351.929 123.44 350.869 122.002C349.788 120.424 349.115 117.718 349.115 113.598C349.115 109.461 349.794 106.787 350.868 105.266C351.934 103.774 353.506 102.97 355.853 102.97C358.202 102.97 359.738 103.774 360.755 105.247Z" fill="#EA5400"/>
<path d="M303.392 103.591L303.411 103.612L303.431 103.631C304.395 104.596 305.607 105.092 306.971 105.092H309.749V127.954C309.749 129.454 310.287 130.789 311.317 131.883L311.334 131.901L311.351 131.918C312.438 133.005 313.784 133.591 315.315 133.591H317.083C318.614 133.591 319.96 133.005 321.047 131.918C322.135 130.831 322.72 129.485 322.72 127.954V105.092H328.681C330.045 105.092 331.256 104.596 332.221 103.631L332.24 103.612L332.259 103.591C333.189 102.595 333.681 101.382 333.681 100.02C333.681 98.6564 333.185 97.445 332.221 96.4804C331.256 95.5157 330.045 95.0199 328.681 95.0199H322.72V94.0095C322.72 92.6152 322.822 91.5184 323.002 90.6902C323.184 89.8484 323.422 89.4014 323.604 89.1876C324.031 88.6957 325.07 88.1902 327.337 88.1902C327.669 88.1902 328.269 88.2285 329.181 88.3189C330.406 88.5097 331.577 88.257 332.612 87.5669L332.642 87.5469L332.671 87.5257C333.775 86.7165 334.388 85.5598 334.388 84.1798C334.388 82.7866 333.94 81.5203 333.064 80.4401C332.215 79.2844 331.05 78.5555 329.629 78.3489C328.347 78.1446 326.871 78.0478 325.216 78.0478C320.183 78.0478 316.155 79.2786 313.514 82.0838C310.886 84.8278 309.749 89.0247 309.749 94.2923V95.0199H306.971C305.607 95.0199 304.395 95.5158 303.431 96.4804C302.466 97.445 301.97 98.6564 301.97 100.02C301.97 101.382 302.462 102.595 303.392 103.591Z" fill="#EA5400"/>
<path d="M267.787 103.612L267.768 103.591C266.838 102.595 266.346 101.382 266.346 100.02C266.346 98.6564 266.842 97.445 267.807 96.4804C268.771 95.5157 269.983 95.0199 271.347 95.0199H273.771V87.2206C273.771 85.7204 274.309 84.3856 275.339 83.2912L275.356 83.2735L275.373 83.2563C276.461 82.1688 277.806 81.5837 279.338 81.5837H280.752C282.283 81.5837 283.629 82.1688 284.716 83.2563C285.804 84.3437 286.389 85.6893 286.389 87.2206V95.0199H293.481C294.836 95.0199 296.04 95.5091 297.001 96.4609C298.011 97.4129 298.552 98.6287 298.552 100.02C298.552 101.417 298.009 102.643 297.021 103.631C296.056 104.596 294.845 105.092 293.481 105.092H286.389V118.336C286.389 119.821 286.469 120.985 286.615 121.855C286.766 122.766 286.962 123.183 287.066 123.324C287.241 123.561 287.894 124.014 289.874 124.014C290.985 124.014 291.726 123.966 292.156 123.894L292.208 123.886L292.26 123.881C293.563 123.75 294.791 124.047 295.845 124.82C296.975 125.649 297.562 126.842 297.562 128.237C297.562 129.673 297.061 130.973 296.132 132.09C295.215 133.202 294.006 133.871 292.572 134.008L292.566 134.008C290.481 134.198 288.866 134.298 287.753 134.298C283.036 134.298 279.27 133.315 276.972 130.899L276.965 130.892L276.958 130.885C274.687 128.439 273.771 124.393 273.771 119.255V105.092H271.347C269.983 105.092 268.771 104.596 267.807 103.631L267.787 103.612Z" fill="#EA5400"/>
<path fill-rule="evenodd" clip-rule="evenodd" d="M230.424 130.703L230.437 130.716L230.449 130.729C232.897 133.121 235.975 134.298 239.563 134.298C243.907 134.298 247.589 132.96 250.52 130.288C250.809 130.908 251.211 131.477 251.722 131.989L251.74 132.006L251.757 132.023C252.866 133.066 254.23 133.591 255.757 133.591H256.535C258.062 133.591 259.396 133.008 260.446 131.901C261.523 130.817 262.102 129.477 262.102 127.954V109.143C262.102 103.561 260.876 99.191 257.965 96.5649C255.099 93.9797 250.359 92.8984 244.231 92.8984C240.946 92.8984 237.466 93.314 233.797 94.1328C232.355 94.4036 231.172 95.1771 230.292 96.3636C229.419 97.493 228.976 98.8014 228.976 100.233C228.976 101.622 229.556 102.812 230.64 103.679L230.666 103.7L230.693 103.72C231.793 104.526 233.072 104.761 234.384 104.403C238.265 103.434 241.467 102.97 244.018 102.97C246.583 102.97 247.91 103.426 248.485 103.923L248.501 103.937L248.517 103.951C248.968 104.319 249.416 105.127 249.477 106.83H247.554C240.961 106.83 235.752 107.975 232.193 110.525L232.183 110.531C228.625 113.119 226.855 116.801 226.855 121.377C226.855 125.086 228.018 128.242 230.424 130.703ZM240.812 117.229C239.628 117.957 239.048 118.979 239.048 120.528C239.048 121.709 239.368 122.523 239.894 123.115C240.467 123.711 241.165 124.014 242.109 124.014C244.436 124.014 246.169 123.315 247.471 122.017C248.76 120.687 249.484 118.818 249.484 116.215V115.911H247.554C244.296 115.911 242.123 116.422 240.812 117.229Z" fill="#EA5400"/>
<path d="M210.578 133.591C209.047 133.591 207.701 133.005 206.614 131.918C205.526 130.831 204.941 129.485 204.941 127.954V84.2568C204.941 82.7255 205.526 81.3799 206.614 80.2925C207.701 79.205 209.047 78.6199 210.578 78.6199H212.417C213.948 78.6199 215.294 79.205 216.381 80.2925C217.468 81.3799 218.054 82.7255 218.054 84.2568V127.954C218.054 129.485 217.468 130.831 216.381 131.918C215.293 133.005 213.948 133.591 212.417 133.591H210.578Z" fill="#EA5400"/>
<path fill-rule="evenodd" clip-rule="evenodd" d="M160.689 131.883L160.706 131.901L160.723 131.918C161.811 133.005 163.156 133.591 164.688 133.591H166.455C167.987 133.591 169.332 133.005 170.42 131.918C171.507 130.831 172.092 129.485 172.092 127.954V115.352C174.135 115.488 175.842 115.558 177.204 115.558C184.108 115.558 189.6 114.006 193.401 110.63C197.282 107.225 199.106 102.271 199.106 96.0602C199.106 90.3446 197.188 85.7827 193.195 82.6392C189.254 79.4884 183.526 78.0478 176.285 78.0478C172.509 78.0478 168.596 78.2389 164.545 78.6199C162.977 78.7528 161.648 79.4614 160.63 80.6702C159.642 81.8444 159.121 83.2213 159.121 84.7455L159.121 127.954C159.121 129.454 159.659 130.789 160.689 131.883ZM172.092 89.207L172.092 104.611C173.526 104.77 174.924 104.85 176.285 104.85C179.903 104.85 182.374 104.064 183.955 102.747C185.55 101.41 186.418 99.4954 186.418 96.7674C186.418 93.9859 185.568 92.1546 184.085 90.9667C182.535 89.7244 180.026 88.9681 176.285 88.9681C174.924 88.9681 173.526 89.0474 172.092 89.207Z" fill="#EA5400"/>
<path fill-rule="evenodd" clip-rule="evenodd" d="M162.651 49.0818L162.645 49.0752C158.106 44.0272 155.939 37.0916 155.939 28.4836C155.939 19.8755 158.106 12.9399 162.645 7.89192L162.651 7.88528C167.245 2.83123 173.456 0.358601 181.094 0.358601C188.729 0.358601 194.92 2.83019 199.469 7.88835C204.056 12.9359 206.249 19.8729 206.249 28.4836C206.249 37.0942 204.056 44.0313 199.469 49.0788C194.92 54.1369 188.729 56.6085 181.094 56.6085C173.456 56.6085 167.245 54.1359 162.651 49.0818ZM181.094 11.7031C185.165 11.7031 187.994 13.0686 189.874 15.6413C191.823 18.3078 192.924 22.5028 192.924 28.4836C192.924 34.4643 191.823 38.6593 189.874 41.3258C187.994 43.8985 185.165 45.264 181.094 45.264C177.023 45.264 174.193 43.8985 172.313 41.3258C170.365 38.6593 169.264 34.4643 169.264 28.4836C169.264 22.5028 170.365 18.3078 172.313 15.6413C174.193 13.0686 177.023 11.7031 181.094 11.7031Z" fill="#EA5400"/>
<path fill-rule="evenodd" clip-rule="evenodd" d="M226.706 16.5652C225.455 17.1561 224.237 17.9872 223.051 19.0353C222.77 18.5015 222.397 18.0113 221.933 17.5718C220.834 16.481 219.466 15.9164 217.916 15.9164H217.067C215.536 15.9164 214.19 16.5015 213.103 17.589C212.015 18.6764 211.43 20.022 211.43 21.5533V65.8222C211.43 67.3535 212.015 68.6991 213.103 69.7865C214.19 70.874 215.536 71.4591 217.067 71.4591H218.481C220.008 71.4591 221.342 70.8763 222.392 69.7694C223.468 68.6849 224.048 67.3455 224.048 65.8222V53.7783C226.789 55.6553 229.895 56.6085 233.332 56.6085C238.035 56.6085 241.952 54.6742 244.978 50.9184C248.056 47.1088 249.506 42.0461 249.506 35.9089C249.506 29.6208 248.144 24.5233 245.197 20.8371C242.239 17.0893 238.231 15.2092 233.332 15.2092C230.88 15.2092 228.657 15.6438 226.706 16.5652ZM223.977 31.1001V40.7176C223.977 42.0791 224.53 43.3388 225.849 44.5439C227.208 45.7448 228.738 46.3247 230.503 46.3247C232.486 46.3247 233.981 45.5593 235.141 43.9507C236.32 42.3149 237.03 39.7143 237.03 35.9089C237.03 32.0323 236.365 29.4074 235.272 27.7923C234.255 26.2891 232.756 25.493 230.503 25.493C228.738 25.493 227.208 26.0729 225.849 27.2738C224.53 28.479 223.977 29.7386 223.977 31.1001Z" fill="#EA5400"/>
<path d="M306.061 19.0834C309.108 16.5301 312.609 15.2092 316.529 15.2092C321.109 15.2092 324.773 16.5252 327.115 19.485C329.452 22.333 330.44 26.8336 330.44 32.5852V50.2644C330.44 51.7957 329.855 53.1413 328.768 54.2288C327.68 55.3162 326.335 55.9013 324.803 55.9013H323.601C322.07 55.9013 320.724 55.3162 319.637 54.2288L319.62 54.2116L319.603 54.1938C318.573 53.0994 318.035 51.7647 318.035 50.2644V33.2923C318.035 31.5868 317.921 30.2128 317.711 29.1462C317.499 28.0627 317.209 27.4036 316.936 27.0351L316.916 27.0084L316.898 26.981C316.426 26.2856 315.442 25.7051 313.347 25.7051C311.926 25.7051 310.524 26.2943 309.108 27.7098C307.684 29.1345 307.104 30.5145 307.104 31.878V50.2644C307.104 51.7957 306.519 53.1413 305.431 54.2288C304.344 55.3162 302.998 55.9013 301.467 55.9013H300.052C298.521 55.9013 297.176 55.3162 296.088 54.2288C295.001 53.1413 294.415 51.7957 294.415 50.2644V21.5533C294.415 20.022 295.001 18.6764 296.088 17.589C297.176 16.5015 298.521 15.9164 300.052 15.9164H300.972C302.516 15.9164 303.874 16.478 304.936 17.5886C305.405 18.037 305.781 18.5378 306.061 19.0834Z" fill="#EA5400"/>
<path fill-rule="evenodd" clip-rule="evenodd" d="M258.773 51.3302L258.782 51.3383L258.79 51.3462C262.526 54.9241 267.74 56.6028 274.191 56.6028C277.12 56.6028 279.961 56.3106 282.711 55.7231C284.108 55.4631 285.283 54.7677 286.144 53.6434C287.023 52.5114 287.468 51.1991 287.468 49.7631C287.468 48.3331 286.827 47.1424 285.661 46.3324C284.561 45.5338 283.283 45.3062 281.972 45.6693C279.482 46.3481 277.27 46.673 275.323 46.673C272.133 46.673 269.954 46.0071 268.553 44.9102C267.424 43.9562 266.585 42.4471 266.182 40.1893H284.237C285.763 40.1893 287.133 39.6668 288.274 38.6521C289.478 37.5819 290.077 36.1798 290.015 34.5717C289.866 28.4312 288.4 23.5399 285.356 20.1754C282.277 16.7724 277.822 15.1903 272.281 15.1903C266.348 15.1903 261.574 16.9212 258.22 20.5945C254.885 24.2471 253.343 29.4353 253.343 35.8965C253.343 42.4428 255.07 47.6799 258.773 51.3302ZM266.194 30.8256C266.564 28.7091 267.212 27.3445 267.988 26.5399C268.93 25.5636 270.33 24.9786 272.422 24.9786C274.3 24.9786 275.501 25.5534 276.296 26.5176C277.022 27.3979 277.559 28.7799 277.754 30.8256H266.194Z" fill="#EA5400"/>
<path fill-rule="evenodd" clip-rule="evenodd" d="M32.8046 128.467C46.1687 128.467 57.0024 117.633 57.0024 104.269C57.0024 90.9052 46.1687 80.0715 32.8046 80.0715C19.4406 80.0715 8.60684 90.9052 8.60684 104.269C8.60684 117.633 19.4406 128.467 32.8046 128.467ZM32.8046 136.315C50.503 136.315 64.8504 121.968 64.8504 104.269C64.8504 86.5709 50.503 72.2235 32.8046 72.2235C15.1063 72.2235 0.758911 86.5709 0.758911 104.269C0.758911 121.968 15.1063 136.315 32.8046 136.315Z" fill="#EA5400"/>
<path d="M7.98619 124.543C13.8628 117.358 22.7982 112.771 32.8048 112.771C42.8114 112.771 51.7467 117.358 57.6234 124.543C55.9558 126.582 54.0418 128.412 51.927 129.987C47.5 124.287 40.5807 120.619 32.8048 120.619C25.0288 120.619 18.1095 124.287 13.6826 129.987C11.5678 128.412 9.65382 126.582 7.98619 124.543Z" fill="#EA5400"/>
<path fill-rule="evenodd" clip-rule="evenodd" d="M32.8047 104.959C36.075 104.959 38.726 102.308 38.726 99.0373C38.726 95.767 36.075 93.116 32.8047 93.116C29.5345 93.116 26.8834 95.767 26.8834 99.0373C26.8834 102.308 29.5345 104.959 32.8047 104.959ZM32.8047 110.155C38.945 110.155 43.9226 105.178 43.9226 99.0373C43.9226 92.897 38.945 87.9194 32.8047 87.9194C26.6645 87.9194 21.6868 92.897 21.6868 99.0373C21.6868 105.178 26.6645 110.155 32.8047 110.155Z" fill="#EA5400"/>
<path fill-rule="evenodd" clip-rule="evenodd" d="M102.586 90.5851C94.9328 90.5851 88.7285 96.7894 88.7285 104.443C88.7285 112.096 94.9328 118.3 102.586 118.3C110.239 118.3 116.444 112.096 116.444 104.443C116.444 96.7894 110.239 90.5851 102.586 90.5851ZM102.586 80.1919C89.1928 80.1919 78.3352 91.0494 78.3352 104.443C78.3352 117.836 89.1928 128.694 102.586 128.694C115.979 128.694 126.837 117.836 126.837 104.443C126.837 91.0494 115.979 80.1919 102.586 80.1919Z" fill="#EA5400"/>
<path fill-rule="evenodd" clip-rule="evenodd" d="M61.018 99.2461L88.7285 99.2461V109.639H61.018V99.2461Z" fill="#EA5400"/>
<path fill-rule="evenodd" clip-rule="evenodd" d="M116.475 99.5661H144.186V109.959L116.475 109.959V99.5661Z" fill="#EA5400"/>
<path fill-rule="evenodd" clip-rule="evenodd" d="M102.586 15.8836C94.9328 15.8836 88.7285 22.0878 88.7285 29.7412C88.7285 37.3945 94.9328 43.5988 102.586 43.5988C110.239 43.5988 116.444 37.3945 116.444 29.7412C116.444 22.0878 110.239 15.8836 102.586 15.8836ZM102.586 5.49035C89.1928 5.49035 78.3352 16.3478 78.3352 29.7412C78.3352 43.1345 89.1928 53.992 102.586 53.992C115.979 53.992 126.837 43.1345 126.837 29.7412C126.837 16.3478 115.979 5.49035 102.586 5.49035Z" fill="#EA5400"/>
<path fill-rule="evenodd" clip-rule="evenodd" d="M61.018 24.5446L88.7285 24.5446V34.9378L61.018 34.9378V24.5446Z" fill="#EA5400"/>
<path fill-rule="evenodd" clip-rule="evenodd" d="M116.475 24.8645L144.186 24.8645V35.2577L116.475 35.2577V24.8645Z" fill="#EA5400"/>
<path fill-rule="evenodd" clip-rule="evenodd" d="M96.3772 52.3033V49.3153H109.325V52.3033H96.3772ZM96.3772 64.2555V58.2794H109.325V64.2555H96.3772ZM96.3772 76.2077V70.2316H109.325V76.2077H96.3772ZM96.3772 85.1718V82.1838H109.325V85.1718H96.3772Z" fill="#EA5400"/>
</svg>
