<svg width="411" height="379" viewBox="0 0 411 379" fill="none" xmlns="http://www.w3.org/2000/svg">
<path fill-rule="evenodd" clip-rule="evenodd" d="M91.9344 356.038C130.274 356.038 161.354 324.958 161.354 286.618C161.354 248.279 130.274 217.198 91.9344 217.198C53.5949 217.198 22.5147 248.279 22.5147 286.618C22.5147 324.958 53.5949 356.038 91.9344 356.038ZM91.9344 378.552C142.708 378.552 183.869 337.392 183.869 286.618C183.869 235.844 142.708 194.684 91.9344 194.684C41.1605 194.684 0.000198364 235.844 0.000198364 286.618C0.000198364 337.392 41.1605 378.552 91.9344 378.552Z" fill="#FF6B00"/>
<path d="M20.7341 344.781C37.5933 324.167 63.2275 311.009 91.9348 311.009C120.642 311.009 146.276 324.167 163.135 344.781C158.351 350.63 152.861 355.879 146.793 360.398C134.093 344.046 114.243 333.523 91.9348 333.523C69.6268 333.523 49.7764 344.046 37.0762 360.398C31.0091 355.879 25.5183 350.63 20.7341 344.781Z" fill="#FF6B00"/>
<path fill-rule="evenodd" clip-rule="evenodd" d="M91.9346 288.596C101.316 288.596 108.922 280.99 108.922 271.608C108.922 262.227 101.316 254.621 91.9346 254.621C82.5528 254.621 74.9473 262.227 74.9473 271.608C74.9473 280.99 82.5528 288.596 91.9346 288.596ZM91.9346 303.504C109.55 303.504 123.83 289.224 123.83 271.608C123.83 253.993 109.55 239.713 91.9346 239.713C74.3192 239.713 60.0391 253.993 60.0391 271.608C60.0391 289.224 74.3192 303.504 91.9346 303.504Z" fill="#FF6B00"/>
<path fill-rule="evenodd" clip-rule="evenodd" d="M291.981 246.445C270.085 246.445 252.334 264.431 252.334 286.618C252.334 308.805 270.085 326.791 291.981 326.791C313.878 326.791 331.629 308.805 331.629 286.618C331.629 264.431 313.878 246.445 291.981 246.445ZM291.981 216.315C253.662 216.315 222.598 247.791 222.598 286.618C222.598 325.445 253.662 356.921 291.981 356.921C330.301 356.921 361.365 325.445 361.365 286.618C361.365 247.791 330.301 216.315 291.981 216.315Z" fill="#FF6B00"/>
<path fill-rule="evenodd" clip-rule="evenodd" d="M173.053 271.553L252.334 271.553L252.334 301.683L173.053 301.683L173.053 271.553Z" fill="#FF6B00"/>
<path fill-rule="evenodd" clip-rule="evenodd" d="M331.719 272.481L411 272.481L411 302.61L331.719 302.61L331.719 272.481Z" fill="#FF6B00"/>
<path fill-rule="evenodd" clip-rule="evenodd" d="M291.981 30.1298C270.085 30.1298 252.334 48.1158 252.334 70.3027C252.334 92.4896 270.085 110.476 291.981 110.476C313.878 110.476 331.629 92.4896 331.629 70.3027C331.629 48.1158 313.878 30.1298 291.981 30.1298ZM291.981 0.000111415C253.662 0.000108065 222.598 31.4757 222.598 70.3027C222.598 109.13 253.662 140.605 291.981 140.605C330.301 140.605 361.365 109.13 361.365 70.3027C361.365 31.4757 330.301 0.000114764 291.981 0.000111415Z" fill="#FF6B00"/>
<path fill-rule="evenodd" clip-rule="evenodd" d="M173.053 55.2379L252.334 55.2379L252.334 85.3675L173.053 85.3675L173.053 55.2379Z" fill="#FF6B00"/>
<path fill-rule="evenodd" clip-rule="evenodd" d="M331.719 56.1654L411 56.1654L411 86.2951L331.719 86.295L331.719 56.1654Z" fill="#FF6B00"/>
<path fill-rule="evenodd" clip-rule="evenodd" d="M270.395 137.901L270.395 129.789L302.842 129.789L302.842 137.901L270.395 137.901ZM270.395 170.348L270.395 154.125L302.842 154.125L302.842 170.348L270.395 170.348ZM270.395 202.796L270.395 186.572L302.842 186.572L302.842 202.796L270.395 202.796ZM270.395 227.131L270.395 219.019L302.842 219.019L302.842 227.131L270.395 227.131Z" fill="#FF6B00"/>
</svg>
